<svg width="342" height="456" viewBox="0 0 342 456" fill="none" xmlns="http://www.w3.org/2000/svg">
<path d="M226.15 355.45C226.15 344.45 221.75 334 212.95 324.1C204.517 314.2 194.067 305.217 181.6 297.15C169.133 288.717 151.717 278.083 129.35 265.25C101.85 249.483 79.85 236.1 63.35 225.1C46.85 213.733 32.7333 200.533 21 185.5C9.26667 170.1 3.4 153.233 3.4 134.9C3.4 116.567 12.0167 96.95 29.25 76.05C46.4833 54.7833 67.5667 37 92.5 22.7C117.8 8.03331 140.9 0.69997 161.8 0.69997C187.1 0.69997 216.617 3.44998 250.35 8.95C284.45 14.45 309.383 20.3166 325.15 26.55V150.85H263.55C249.617 121.15 233.667 98.05 215.7 81.55C197.733 65.05 179.033 56.8 159.6 56.8C146.767 56.8 136.683 61.0166 129.35 69.45C122.017 77.5166 118.35 87.9666 118.35 100.8C118.35 112.533 122.75 123.717 131.55 134.35C140.35 144.617 151.167 154.15 164 162.95C177.2 171.383 195.167 181.833 217.9 194.3C244.667 209.333 266.117 222.35 282.25 233.35C298.75 244.35 312.683 257.367 324.05 272.4C335.783 287.067 341.65 303.383 341.65 321.35C341.65 339.683 332.3 359.483 313.6 380.75C295.267 401.65 272.9 419.433 246.5 434.1C220.1 448.4 195.9 455.55 173.9 455.55C147.133 455.55 115.6 452.8 79.3 447.3C43 441.8 16.7833 435.933 0.650001 429.7V304.85H61.7C76.7333 334.55 94.3333 357.65 114.5 374.15C135.033 390.65 155.75 398.9 176.65 398.9C191.683 398.9 203.6 394.683 212.4 386.25C221.567 377.817 226.15 367.55 226.15 355.45Z" fill="#38A2EA"/>
<path d="M212.95 324.1L207.621 328.639L207.669 328.695L207.718 328.751L212.95 324.1ZM181.6 297.15L177.678 302.948L177.737 302.988L177.797 303.027L181.6 297.15ZM129.35 265.25L132.834 259.178L132.832 259.177L129.35 265.25ZM63.35 225.1L59.3789 230.865L59.4228 230.895L59.4671 230.924L63.35 225.1ZM21 185.5L15.432 189.742L15.4567 189.775L15.4818 189.807L21 185.5ZM29.25 76.05L34.6508 80.5033L34.6698 80.4802L34.6885 80.4571L29.25 76.05ZM92.5 22.7L95.9826 28.7722L95.9967 28.7641L96.0107 28.756L92.5 22.7ZM250.35 8.95L249.224 15.8588L249.235 15.8607L250.35 8.95ZM325.15 26.55H332.15V21.7902L327.724 20.0402L325.15 26.55ZM325.15 150.85V157.85H332.15V150.85H325.15ZM263.55 150.85L257.213 153.823L259.102 157.85H263.55V150.85ZM129.35 69.45L134.53 74.1587L134.582 74.1015L134.632 74.0432L129.35 69.45ZM131.55 134.35L126.157 138.813L126.196 138.86L126.235 138.906L131.55 134.35ZM164 162.95L160.041 168.723L160.135 168.788L160.231 168.849L164 162.95ZM217.9 194.3L221.328 188.197L221.297 188.179L221.266 188.162L217.9 194.3ZM282.25 233.35L278.307 239.134L278.337 239.154L278.367 239.174L282.25 233.35ZM324.05 272.4L318.466 276.622L318.524 276.698L318.584 276.773L324.05 272.4ZM313.6 380.75L308.343 376.128L308.338 376.134L313.6 380.75ZM246.5 434.1L249.834 440.255L249.867 440.237L249.9 440.219L246.5 434.1ZM79.3 447.3L78.2514 454.221L78.2514 454.221L79.3 447.3ZM0.650001 429.7H-6.35V434.5L-1.87279 436.23L0.650001 429.7ZM0.650001 304.85V297.85H-6.35V304.85H0.650001ZM61.7 304.85L67.9455 301.689L66.0025 297.85H61.7V304.85ZM114.5 374.15L110.067 379.568L110.091 379.587L110.115 379.607L114.5 374.15ZM212.4 386.25L207.661 381.098L207.608 381.147L207.557 381.196L212.4 386.25ZM233.15 355.45C233.15 342.4 227.877 330.356 218.182 319.449L207.718 328.751C215.623 337.644 219.15 346.5 219.15 355.45H233.15ZM218.279 319.561C209.347 309.076 198.361 299.658 185.403 291.273L177.797 303.027C189.772 310.776 199.686 319.324 207.621 328.639L218.279 319.561ZM185.522 291.352C172.848 282.778 155.261 272.046 132.834 259.178L125.866 271.322C148.173 284.12 165.419 294.655 177.678 302.948L185.522 291.352ZM132.832 259.177C105.398 243.449 83.5486 230.153 67.2329 219.276L59.4671 230.924C76.1514 242.047 98.302 255.518 125.868 271.323L132.832 259.177ZM67.3211 219.335C51.3782 208.352 37.7913 195.637 26.5182 181.193L15.4818 189.807C27.6754 205.43 42.3219 219.114 59.3789 230.865L67.3211 219.335ZM26.568 181.258C15.7079 167.004 10.4 151.611 10.4 134.9H-3.6C-3.6 154.855 2.8254 173.196 15.432 189.742L26.568 181.258ZM10.4 134.9C10.4 118.811 17.9737 100.729 34.6508 80.5033L23.8492 71.5967C6.05967 93.1713 -3.6 114.323 -3.6 134.9H10.4ZM34.6885 80.4571C51.3513 59.8945 71.7604 42.6643 95.9826 28.7722L89.0174 16.6278C63.373 31.3356 41.6154 49.6721 23.8115 71.6429L34.6885 80.4571ZM96.0107 28.756C120.649 14.473 142.529 7.69997 161.8 7.69997V-6.30003C139.271 -6.30003 114.951 1.59365 88.9893 16.644L96.0107 28.756ZM161.8 7.69997C186.618 7.69997 215.743 10.3999 249.224 15.8588L251.476 2.04122C217.491 -3.49994 187.582 -6.30003 161.8 -6.30003V7.69997ZM249.235 15.8607C283.239 21.3451 307.549 27.1186 322.576 33.0597L327.724 20.0402C311.218 13.5147 285.661 7.55491 251.465 2.03931L249.235 15.8607ZM318.15 26.55V150.85H332.15V26.55H318.15ZM325.15 143.85H263.55V157.85H325.15V143.85ZM269.887 147.877C255.693 117.62 239.261 93.6834 220.435 76.3943L210.965 86.7057C228.073 102.417 243.541 124.68 257.213 153.823L269.887 147.877ZM220.435 76.3943C201.52 59.0234 181.203 49.8 159.6 49.8V63.8C176.864 63.8 193.947 71.0765 210.965 86.7057L220.435 76.3943ZM159.6 49.8C145.074 49.8 132.935 54.6596 124.068 64.8567L134.632 74.0432C140.432 67.3737 148.459 63.8 159.6 63.8V49.8ZM124.17 64.7413C115.463 74.3198 111.35 86.5528 111.35 100.8H125.35C125.35 89.3805 128.571 80.7135 134.53 74.1587L124.17 64.7413ZM111.35 100.8C111.35 114.44 116.51 127.156 126.157 138.813L136.943 129.887C128.99 120.277 125.35 110.626 125.35 100.8H111.35ZM126.235 138.906C135.487 149.699 146.779 159.629 160.041 168.723L167.959 157.177C155.555 148.671 145.213 139.534 136.865 129.794L126.235 138.906ZM160.231 168.849C173.62 177.403 191.74 187.938 214.534 200.438L221.266 188.162C198.593 175.729 180.78 165.364 167.769 157.051L160.231 168.849ZM214.472 200.403C241.15 215.387 262.407 228.293 278.307 239.134L286.193 227.566C269.827 216.407 248.184 203.28 221.328 188.197L214.472 200.403ZM278.367 239.174C294.249 249.762 307.597 262.246 318.466 276.622L329.634 268.178C317.77 252.487 303.251 238.938 286.133 227.526L278.367 239.174ZM318.584 276.773C329.373 290.259 334.65 305.049 334.65 321.35H348.65C348.65 301.718 342.194 283.874 329.516 268.027L318.584 276.773ZM334.65 321.35C334.65 337.265 326.506 355.472 308.343 376.128L318.857 385.372C338.094 363.495 348.65 342.102 348.65 321.35H334.65ZM308.338 376.134C290.578 396.38 268.859 413.671 243.101 427.981L249.9 440.219C276.941 425.196 299.955 406.92 318.862 385.366L308.338 376.134ZM243.166 427.945C217.434 441.883 194.389 448.55 173.9 448.55V462.55C197.411 462.55 222.766 454.917 249.834 440.255L243.166 427.945ZM173.9 448.55C147.586 448.55 116.419 445.844 80.3486 440.379L78.2514 454.221C114.781 459.756 146.68 462.55 173.9 462.55V448.55ZM80.3486 440.379C44.1216 434.89 18.5476 429.111 3.1728 423.17L-1.87279 436.23C15.0191 442.756 41.8784 448.71 78.2514 454.221L80.3486 440.379ZM7.65 429.7V304.85H-6.35V429.7H7.65ZM0.650001 311.85H61.7V297.85H0.650001V311.85ZM55.4545 308.011C70.8107 338.349 88.9673 362.304 110.067 379.568L118.933 368.732C99.6993 352.996 82.656 330.751 67.9455 301.689L55.4545 308.011ZM110.115 379.607C131.561 396.84 153.778 405.9 176.65 405.9V391.9C157.722 391.9 138.505 384.46 118.885 368.693L110.115 379.607ZM176.65 405.9C193.044 405.9 206.851 401.263 217.243 391.304L207.557 381.196C200.349 388.104 190.322 391.9 176.65 391.9V405.9ZM217.139 391.402C227.699 381.687 233.15 369.572 233.15 355.45H219.15C219.15 365.528 215.435 373.946 207.661 381.098L217.139 391.402Z" fill="black"/>
</svg>
